<svg xmlns="http://www.w3.org/2000/svg" width="1200" height="630" viewBox="0 0 1200 630">
  <defs>
    <linearGradient id="bg" x1="0%" y1="0%" x2="100%" y2="100%">
      <stop offset="0%" style="stop-color:#fff7ed"/>
      <stop offset="100%" style="stop-color:#ffffff"/>
    </linearGradient>
    <linearGradient id="accent" x1="0%" y1="0%" x2="100%" y2="0%">
      <stop offset="0%" style="stop-color:#f97316"/>
      <stop offset="100%" style="stop-color:#ea580c"/>
    </linearGradient>
  </defs>
  <rect width="1200" height="630" fill="url(#bg)"/>
  <rect x="0" y="0" width="8" height="630" fill="url(#accent)"/>
  <circle cx="900" cy="150" r="200" fill="#f97316" opacity="0.05"/>
  <circle cx="1000" cy="500" r="150" fill="#3b82f6" opacity="0.05"/>
  <g transform="translate(80, 180)">
    <rect x="0" y="0" width="64" height="64" rx="16" fill="url(#accent)"/>
    <path d="M20 44V20h8l12 16 12-16h8v24h-8V30l-12 16-12-16v14z" fill="white" transform="translate(8, 8) scale(0.75)"/>
  </g>
  <text x="80" y="300" font-family="Arial, sans-serif" font-size="56" font-weight="bold" fill="#0f172a">StockFlow</text>
  <text x="80" y="360" font-family="Arial, sans-serif" font-size="28" fill="#64748b">نظام إدارة المخازن والمخزون الاحترافي</text>
  <text x="80" y="410" font-family="Arial, sans-serif" font-size="22" fill="#94a3b8">أدر متجرك بذكاء — تقارير، فواتير، نقاط بيع، شحن</text>
  <g transform="translate(80, 460)">
    <rect x="0" y="0" width="180" height="44" rx="22" fill="url(#accent)"/>
    <text x="90" y="28" font-family="Arial, sans-serif" font-size="16" font-weight="bold" fill="white" text-anchor="middle">ابدأ مجاناً</text>
  </g>
  <g transform="translate(280, 460)">
    <rect x="0" y="0" width="180" height="44" rx="22" fill="none" stroke="#e2e8f0" stroke-width="2"/>
    <text x="90" y="28" font-family="Arial, sans-serif" font-size="16" fill="#64748b" text-anchor="middle">stockflow.vexonet.online</text>
  </g>
</svg>
